<svg width="67" height="57" viewBox="0 0 67 57" fill="none" xmlns="http://www.w3.org/2000/svg">
<rect width="67" height="56.2563" rx="8" fill="#023047"/>
<path d="M53.9187 26.1008L13.3185 26.0814C12.5649 26.0815 12.1992 25.251 12.7477 24.7853L31.9832 8.45446C32.3037 8.18235 32.8039 8.1823 33.1245 8.45436L53.9187 26.1008V47.5479C53.9187 47.9622 53.5461 48.298 53.0864 48.298H41.931C41.4713 48.298 41.0987 47.9622 41.0987 47.5479V36.7757C41.0987 35.7571 40.6486 34.7802 39.8473 34.0599C39.0461 33.3396 37.9594 32.935 36.8262 32.935H28.2813C27.1482 32.935 26.0615 33.3396 25.2602 34.0599C24.459 34.7802 24.0088 35.7571 24.0088 36.7757V46.7086C24.0088 47.3425 24.8272 47.6906 25.3702 47.2877L53.9187 26.1008Z" fill="#FFB703"/>
</svg>
