<svg width="30" height="29" viewBox="0 0 30 29" fill="none" xmlns="http://www.w3.org/2000/svg">
<g id="Frame 427319332">
<path id="Vector" d="M0 0H13.6364V13.1818H0V0ZM2.72727 2.63636V10.5455H10.9091V2.63636H2.72727Z" fill="black"/>
<path id="Vector_2" fill-rule="evenodd" clip-rule="evenodd" d="M5.45508 5.27246H8.18235V7.90882H5.45508V5.27246Z" fill="black"/>
<path id="Vector_3" d="M16.3633 0H29.9996V13.1818H16.3633V0ZM19.0906 2.63636V10.5455H27.2724V2.63636H19.0906Z" fill="black"/>
<path id="Vector_4" fill-rule="evenodd" clip-rule="evenodd" d="M21.8184 5.27246H24.5456V7.90882H21.8184V5.27246Z" fill="black"/>
<path id="Vector_5" d="M0 15.8184H13.6364V29.0002H0V15.8184ZM2.72727 18.4547V26.3638H10.9091V18.4547H2.72727Z" fill="black"/>
<path id="Vector_6" fill-rule="evenodd" clip-rule="evenodd" d="M5.45508 21.0908H8.18235V23.7272H5.45508V21.0908Z" fill="black"/>
<path id="Vector_7" d="M29.9996 23.7275H24.5451V29.0002H16.3633V15.8184V23.7275H19.0906V26.3638H21.8178V18.4547H19.0906V15.8184H17.7269H21.8178V18.4547H24.5451V21.0911H27.2724V15.8184H29.9996V23.7275ZM29.9996 26.3638V29.0002H27.2724V26.3638H29.9996Z" fill="black"/>
</g>
</svg>
