<svg width="77" height="80" viewBox="0 0 77 80" fill="none" xmlns="http://www.w3.org/2000/svg">
<path id="Vector" fill-rule="evenodd" clip-rule="evenodd" d="M0 39.9808C0 29.3772 4.05624 19.2079 11.2764 11.7101C18.4965 4.21225 28.2892 0 38.5 0C48.7108 0 58.5035 4.21225 65.7236 11.7101C72.9438 19.2079 77 29.3772 77 39.9808C77 50.5843 72.9438 60.7536 65.7236 68.2514C58.5035 75.7493 48.7108 79.9615 38.5 79.9615C28.2892 79.9615 18.4965 75.7493 11.2764 68.2514C4.05624 60.7536 0 50.5843 0 39.9808ZM36.3029 57.0925L58.4687 28.317L54.4647 24.9906L35.5637 49.5175L22.176 37.9338L18.8907 42.0278L36.3029 57.0979V57.0925Z" fill="#1ED831"/>
</svg>
